<?xml version="1.0" encoding="UTF-8"?>
<!-- Generator: Adobe Illustrator 25.2.1, SVG Export Plug-In . SVG Version: 6.00 Build 0)  -->
<svg version="1.1" id="Layer_1" xmlns="http://www.w3.org/2000/svg" xmlns:xlink="http://www.w3.org/1999/xlink" x="0px" y="0px" viewBox="0 0 63 63" style="enable-background:new 0 0 63 63;" xml:space="preserve">
<style type="text/css">
	.st0{fill:#FCB019;}
	.st1{fill:#EE2B2F;}
</style>
<g id="Cricket">
	<path d="M21.7,17.2c0.4,0.2,0.9,0.3,1.3,0.3c1.4,0,2.7-0.8,3.2-2.2c0.7-1.8-0.1-3.8-1.9-4.6c-1.8-0.7-3.8,0.1-4.6,1.9   c-0.4,0.9-0.4,1.8,0,2.7C20.1,16.2,20.8,16.9,21.7,17.2z M20.7,13c0.4-1,1.3-1.5,2.3-1.5c0.3,0,0.6,0.1,1,0.2   c1.3,0.5,1.9,2,1.4,3.3c-0.5,1.3-2,1.9-3.3,1.4c-0.6-0.3-1.1-0.7-1.4-1.4S20.4,13.6,20.7,13z"/>
	<path class="st0" d="M36.9,33.5c-0.2-0.2-0.5-0.2-0.7,0l-1.1,1.1l-1.4-1.4c-0.1,0.1-0.2,0.3-0.3,0.4c-0.1,0.1-0.2,0.2-0.4,0.3   l1.4,1.4l-1.1,1.1c-0.2,0.2-0.2,0.5,0,0.7L44,47.7c0.3,0.3,0.7,0.4,1.1,0.4c0.4,0,0.8-0.1,1.1-0.4l1.4-1.4c0.3-0.3,0.4-0.7,0.4-1.1   c0-0.4-0.2-0.8-0.4-1.1L36.9,33.5z M46.8,45.6C46.8,45.6,46.8,45.6,46.8,45.6L45.4,47c-0.2,0.2-0.5,0.2-0.7,0L34.5,36.7l2.1-2.1   l10.3,10.3c0.1,0.1,0.1,0.2,0.1,0.4C47,45.3,46.9,45.5,46.8,45.6z"/>
	<path d="M56.7,36h-1h-2h-2h-1c-0.3,0-0.5,0.2-0.5,0.5s0.2,0.5,0.5,0.5h0.5v15.5c0,0.3,0.2,0.5,0.5,0.5s0.5-0.2,0.5-0.5V37h1v15.5   c0,0.3,0.2,0.5,0.5,0.5s0.5-0.2,0.5-0.5V37h1v15.5c0,0.3,0.2,0.5,0.5,0.5s0.5-0.2,0.5-0.5V37h0.5c0.3,0,0.5-0.2,0.5-0.5   S57,36,56.7,36z"/>
	<path class="st1" d="M53.7,32c1.1,0,2-0.9,2-2s-0.9-2-2-2s-2,0.9-2,2S52.6,32,53.7,32z M53.7,29c0.6,0,1,0.4,1,1s-0.4,1-1,1   s-1-0.4-1-1S53.2,29,53.7,29z"/>
	<path d="M33.7,33.1c0.3-0.4,0.4-0.9,0.4-1.4c0-0.7-0.3-1.3-0.7-1.8L22.1,18.7c-0.2-0.2-0.5-0.4-0.8-0.5c0,0,0,0,0,0   c-0.9-0.3-1.8-0.3-2.7,0c-0.9,0.4-1.5,1-1.9,1.9l-4.2,10.1c0,0,0,0,0,0l0,0c-0.2,0.4-0.3,0.9-0.3,1.3v2c0,0.8,0.4,1.5,1,2v7L7,48.8   c-0.9,0.9-1,2.3-0.3,3.3c0.4,0.6,1.1,1,1.8,1c0.1,0,0.1,0,0.2,0c0.7,0,1.3-0.3,1.8-0.7l7.1-7.1c0.5-0.5,0.7-1.1,0.7-1.8l0-4   l2.1,2.1v8.9c0,1.3,0.9,2.4,2.1,2.6c0.1,0,0.3,0,0.4,0c0.6,0,1.2-0.2,1.6-0.6c0.6-0.5,0.9-1.2,0.9-1.9v-10c0-0.7-0.3-1.3-0.7-1.8   l-5.3-5.3v-1.3l2.7-6.6l7.9,7.9c0.5,0.5,1.1,0.7,1.8,0.7c0.3,0,0.6-0.1,0.9-0.2c0.2-0.1,0.3-0.1,0.4-0.2c0.1-0.1,0.3-0.2,0.4-0.3   C33.5,33.4,33.6,33.3,33.7,33.1z M33,32.4c-0.1,0.2-0.2,0.3-0.3,0.4c-0.1,0.1-0.3,0.2-0.4,0.3c0,0,0,0-0.1,0   c-0.6,0.2-1.2,0.1-1.6-0.3l-8.2-8.2L22,24.3l-0.4-0.4l-0.9-0.9c-0.1-0.1-0.2-0.1-0.3-0.1c-0.2,0-0.3,0-0.4,0.1   c-0.2,0.2-0.2,0.5,0,0.7l1.2,1.2L18.6,31h-5.4c0-0.2,0.1-0.3,0.1-0.4c0,0,0,0,0,0l4.2-10.1c0.3-0.6,0.7-1.1,1.4-1.4   c0.6-0.3,1.3-0.3,1.9,0c0,0,0,0,0,0c0,0,0.1,0,0.1,0.1c0.1,0.1,0.3,0.1,0.4,0.3l0.1,0.1l11.3,11.3c0.3,0.3,0.4,0.7,0.4,1.1   C33.1,32,33.1,32.2,33,32.4z M24.3,50.6c0,0.4-0.2,0.9-0.5,1.1c-0.3,0.3-0.8,0.4-1.2,0.3c-0.7-0.1-1.2-0.8-1.2-1.6v-9.1   c0-0.1-0.1-0.3-0.1-0.4l-2.9-2.9l-0.5-0.5l-0.5-0.5l-2-2C15.2,35.1,15,35,14.9,35h-0.2c-0.2,0-0.3,0-0.5-0.1   c-0.2-0.1-0.4-0.2-0.5-0.3c-0.2-0.2-0.3-0.4-0.4-0.6c-0.1-0.2-0.1-0.3-0.1-0.5c0,0,0,0,0,0v-0.3V32h0.1h0.5h0.7h1.3h0H17h0.7h0.5h0   v1.1v0.4v0.2c0,0.1,0,0.1,0.1,0.2c0,0.1,0.1,0.1,0.1,0.1l5.5,5.5c0.3,0.3,0.4,0.7,0.4,1.1V50.6z M17.2,43.5c0,0.4-0.2,0.8-0.4,1.1   l-7.1,7.1C9.4,52,9,52.1,8.5,52.1c-0.4,0-0.8-0.3-1.1-0.6c-0.4-0.6-0.3-1.4,0.2-2l6.4-6.4c0.1-0.1,0.1-0.2,0.1-0.4V36   c0.2,0,0.3,0.1,0.5,0.1l2.5,2.5L17.2,43.5z"/>
</g>
</svg>